<?xml version="1.0" encoding="UTF-8"?>
<svg width="677px" height="800px" viewBox="0 0 677 800" version="1.1" xmlns="http://www.w3.org/2000/svg" xmlns:xlink="http://www.w3.org/1999/xlink">
    <!-- Generator: Sketch 59 (86127) - https://sketch.com -->
    <title>Group 6</title>
    <desc>Created with Sketch.</desc>
    <defs>
        <rect id="path-1" x="0" y="0" width="677" height="800"></rect>
        <path d="M495.618024,0 C577.206008,48.5811732 618,103.174712 618,163.780616 C618,254.689472 452.865547,406.464001 526.066895,520.034825 C599.268243,633.605648 725.437123,783.753669 655.933923,905.919777 C609.598456,987.36385 466.831094,1019.59105 227.631837,1002.60137 L0,956.385884 L0,0 L495.618024,0 Z" id="path-3"></path>
        <polygon id="path-5" points="0 0.812399229 27.0561676 0.812399229 27.0561676 66.0616446 0 66.0616446"></polygon>
        <path d="M2.27373675e-13,0.172147419 L6.06764845,58.3303724 L54.0704441,16.0408349 C41.2604074,12.7484411 31.6982767,10.1745499 25.3840521,8.3191612 C19.0698275,6.46377255 10.6084768,3.74810129 2.27373675e-13,0.172147419 Z" id="path-7"></path>
        <path d="M1.11910481e-13,0.547743881 L1.11910481e-13,60.4424014 L54.8851003,22.8664168 C41.8825966,18.180603 32.0984959,14.5027467 25.532798,11.8328479 C18.9671001,9.1629491 10.4561674,5.40124776 1.11910481e-13,0.547743881 Z" id="path-9"></path>
        <path d="M10.13521,0.132458438 L2.29150032e-13,69.2693005 L66.8681306,34.7008794 C52.284913,27.1742436 41.5515997,21.3138313 34.6681909,17.1196426 C27.7847821,12.925454 19.6071218,7.26305922 10.13521,0.132458438 Z" id="path-11"></path>
        <path d="M18.1386893,-1.70530257e-13 L0,70.3137663 L69.8884173,49.5228059 C57.2976343,39.6228968 48.1213361,31.9160083 42.3595227,26.4021404 C36.5977093,20.8882724 28.5240982,12.087559 18.1386893,-1.70530257e-13 Z" id="path-13"></path>
        <path d="M2.27373675e-13,0.172147419 L6.06764845,58.3303724 L54.0704441,16.0408349 C41.2604074,12.7484411 31.6982767,10.1745499 25.3840521,8.3191612 C19.0698275,6.46377255 10.6084768,3.74810129 2.27373675e-13,0.172147419 Z" id="path-15"></path>
        <path d="M1.11910481e-13,0.547743881 L1.11910481e-13,60.4424014 L54.8851003,22.8664168 C41.8825966,18.180603 32.0984959,14.5027467 25.532798,11.8328479 C18.9671001,9.1629491 10.4561674,5.40124776 1.11910481e-13,0.547743881 Z" id="path-17"></path>
        <path d="M2.27373675e-13,0.172147419 L6.06764845,58.3303724 L54.0704441,16.0408349 C41.2604074,12.7484411 31.6982767,10.1745499 25.3840521,8.3191612 C19.0698275,6.46377255 10.6084768,3.74810129 2.27373675e-13,0.172147419 Z" id="path-19"></path>
        <path d="M1.11910481e-13,0.547743881 L1.11910481e-13,60.4424014 L54.8851003,22.8664168 C41.8825966,18.180603 32.0984959,14.5027467 25.532798,11.8328479 C18.9671001,9.1629491 10.4561674,5.40124776 1.11910481e-13,0.547743881 Z" id="path-21"></path>
        <path d="M10.13521,0.132458438 L2.29150032e-13,69.2693005 L66.8681306,34.7008794 C52.284913,27.1742436 41.5515997,21.3138313 34.6681909,17.1196426 C27.7847821,12.925454 19.6071218,7.26305922 10.13521,0.132458438 Z" id="path-23"></path>
        <path d="M18.1386893,-1.70530257e-13 L0,70.3137663 L69.8884173,49.5228059 C57.2976343,39.6228968 48.1213361,31.9160083 42.3595227,26.4021404 C36.5977093,20.8882724 28.5240982,12.087559 18.1386893,-1.70530257e-13 Z" id="path-25"></path>
        <path d="M2.27373675e-13,0.172147419 L6.06764845,58.3303724 L54.0704441,16.0408349 C41.2604074,12.7484411 31.6982767,10.1745499 25.3840521,8.3191612 C19.0698275,6.46377255 10.6084768,3.74810129 2.27373675e-13,0.172147419 Z" id="path-27"></path>
        <path d="M1.11910481e-13,0.547743881 L1.11910481e-13,60.4424014 L54.8851003,22.8664168 C41.8825966,18.180603 32.0984959,14.5027467 25.532798,11.8328479 C18.9671001,9.1629491 10.4561674,5.40124776 1.11910481e-13,0.547743881 Z" id="path-29"></path>
        <path d="M10.13521,0.132458438 L2.29150032e-13,69.2693005 L66.8681306,34.7008794 C52.284913,27.1742436 41.5515997,21.3138313 34.6681909,17.1196426 C27.7847821,12.925454 19.6071218,7.26305922 10.13521,0.132458438 Z" id="path-31"></path>
        <polygon id="path-33" points="0.232135135 0.462693878 69.3635734 0.462693878 69.3635734 51.6410466 0.232135135 51.6410466"></polygon>
    </defs>
    <g id="Login-&amp;-Register" stroke="none" stroke-width="1" fill="none" fill-rule="evenodd">
        <g id="Login-EO">
            <g id="Group-6" transform="translate(-0.000000, 0.000000)">
                <mask id="mask-2" fill="white">
                    <use xlink:href="#path-1"></use>
                </mask>
                <g id="Rectangle"></g>
                <g id="Group-4" mask="url(#mask-2)">
                    <g transform="translate(0.000000, -35.000000)">
                        <mask id="mask-4" fill="white">
                            <use xlink:href="#path-3"></use>
                        </mask>
                        <use id="Path" stroke="none" fill="#AE1E40" fill-rule="evenodd" xlink:href="#path-3"></use>
                        <g id="Vector" stroke="none" stroke-width="1" fill="none" fill-rule="evenodd" mask="url(#mask-4)">
                            <g transform="translate(-129.000000, -185.000000)">
                                <path d="M1122.21437,940.011188 C1111.84753,963.145789 1090.15816,984.042103 1066.87599,1003.83194 C1046.40928,1021.23146 1024.51664,1038.04536 1001.19807,1054.27365 C994.735857,1058.77838 988.170492,1063.2268 981.501974,1067.61891 L976.869205,1070.65116 C972.761301,1073.34836 968.583617,1076.02023 964.336153,1078.66676 L963.826458,1078.98772 C959.706418,1081.5892 955.549972,1084.16534 951.357118,1086.71615 C937.640845,1095.07805 923.141825,1103.38083 907.113718,1110.25617 C901.652693,1112.60426 896.018736,1114.79187 890.184542,1116.75143 C887.029283,1117.81567 883.807279,1118.81234 880.518528,1119.74144 C875.130317,1121.26179 869.596479,1122.58787 863.816895,1123.67745 C862.852114,1123.86327 861.878231,1124.04065 860.904348,1124.20957 C854.988239,1125.24003 848.999315,1125.99176 842.946679,1126.50699 C820.765818,1128.39053 797.85682,1127.01377 775.639552,1123.78725 C764.535469,1122.174 753.604318,1120.09619 743.028134,1117.73121 C741.726589,1117.44403 740.434147,1117.14841 739.132603,1116.88657 C703.117146,1108.52467 669.304302,1097.17275 633.033997,1089.19093 C620.534319,1086.43742 607.791928,1084.10059 594.806826,1082.18045 C588.472037,1081.24572 582.100842,1080.40108 575.69324,1079.64654 C560.61171,1077.90659 545.339045,1076.74099 530.002668,1076.14974 C509.323588,1075.3051 487.970982,1075.6683 468.29309,1079.02151 C465.671799,1079.46635 463.08388,1079.9675 460.529334,1080.52496 C457.289126,1081.22882 454.109596,1082.03123 450.990744,1082.93217 C442.582883,1085.45327 434.399872,1088.57947 426.516253,1092.2823 C424.959861,1092.9918 423.421672,1093.70974 421.883483,1094.43613 L421.883483,1094.43613 C417.059578,1096.71665 412.299385,1099.04784 407.466379,1101.31147 C398.76818,1105.53638 389.715808,1109.10112 380.3979,1111.97079 C375.294156,1113.46673 370.104121,1114.69619 364.852184,1115.6534 C350.953876,1118.23799 336.163601,1119.26 321.309615,1119.32757 C314.146571,1119.32757 306.974425,1119.18398 299.884195,1118.83768 L299.665754,1118.83768 C297.2447,1118.71943 294.814544,1118.58429 292.384388,1118.41537 C281.316712,1117.71432 270.285442,1116.63318 259.418003,1115.15507 C222.182917,1110.08725 186.868292,1100.50907 158.461863,1085.89685 C119.879724,1066.06478 95.3779274,1036.49405 99.0550172,1006.94865 C101.694512,985.663805 118.086688,965.899305 133.641506,946.548677 C162.575834,910.516472 189.68072,873.664971 203.943095,834.820126 C215.511366,803.289836 218.960913,769.952023 245.583408,741.614459 C254.111708,732.54306 265.015553,724.26562 277.712435,717.01019 C287.203024,711.618134 297.150635,706.951605 307.456816,703.056791 C319.104936,698.629359 331.087705,695.001742 343.308442,692.203209 C353.899806,689.764829 364.633181,687.89229 375.455673,686.594821 C381.335376,685.885326 387.287893,685.336312 393.276816,684.964672 C397.888348,684.666233 402.521117,684.477598 407.175124,684.398765 L407.894159,684.398765 C410.739959,684.348087 413.58576,684.348087 416.431561,684.398765 C437.182223,684.69689 457.875929,686.501475 478.323172,689.795994 C491.120173,691.78089 503.807953,694.213444 516.231784,696.890943 C523.646642,698.484491 530.994754,700.154056 538.27612,701.899639 C540.496937,702.43176 542.717753,702.972327 544.911265,703.521341 C596.718184,716.402052 642.299536,734.190102 692.2133,748.785425 C692.468148,748.861443 692.713894,748.93746 692.968742,748.996585 L692.968742,748.996585 C703.213315,751.920222 713.615594,754.344823 724.132989,756.260461 C731.860338,757.696343 739.760621,758.937959 747.797428,760.027541 C760.102937,761.716814 772.672395,763.05134 785.33287,764.200046 L788.127095,764.453437 C806.70368,766.142711 825.444096,767.40122 843.647511,768.870888 C850.109723,769.394562 856.517325,769.93513 862.83391,770.560161 C866.838662,770.931801 870.807006,771.325965 874.738944,771.742653 C877.560473,772.046722 880.391104,772.350791 883.221735,772.671753 C886.052366,772.992715 889.046828,773.33057 891.959375,773.676871 C893.85253,773.896476 895.736583,774.124528 897.629739,774.369473 C909.09789,775.780016 920.538737,777.359487 931.852159,779.16701 C938.73305,780.265037 945.577534,781.447529 952.340103,782.72293 C957.236821,783.6464 962.091066,784.620548 966.902835,785.645374 C970.470704,786.394285 974.008235,787.182613 977.515426,788.010357 C1006.01287,794.657648 1032.68088,803.374299 1055.66269,815.140089 C1115.34258,845.62303 1142.04699,895.769115 1122.21437,940.011188 Z" id="Path" fill="#FFFFFF" fill-rule="nonzero" opacity="0.1" transform="translate(613.691132, 905.860756) rotate(14.000000) translate(-613.691132, -905.860756) "></path>
                                <g id="Man-1" stroke-width="1" fill="none" fill-rule="evenodd" transform="translate(205.500000, 809.000000) rotate(17.000000) translate(-205.500000, -809.000000) translate(72.000000, 544.000000)">
                                    <path d="M201.7433,461.173641 C201.7433,461.173641 204.930933,482.97222 208.693452,484.140573 C212.455971,485.308926 254.550441,470.866566 257.198216,465.981092 C259.84393,461.099618 252.531126,459.163034 242.34595,460.697497 C232.162834,462.23196 229.865349,461.853846 229.865349,461.853846 L226.856982,454.207538 L201.7433,461.173641 Z" id="Fill-4" fill="#373463"></path>
                                    <path d="M242.012733,461.411128 L243.82872,469.081071 L206.058973,482.246801 C206.806968,484.250191 207.612963,485.664226 208.450957,485.941202 C212.102933,487.157398 252.960659,472.123642 255.530642,467.038113 C258.018626,462.112939 251.42067,460.076229 242.012733,461.411128" id="Fill-6" fill="#A4D7FB"></path>
                                    <path d="M148.469912,483.320522 C148.469912,483.320522 163.912471,499.480701 162.549773,503.128725 C161.189106,506.778781 124.000237,530.3061 118.49055,529.288472 C112.982893,528.270843 115.899189,521.389158 123.332089,514.46685 C130.767019,507.542509 131.865707,505.527565 131.865707,505.527565 L127.60296,498.391981 L148.469912,483.320522 Z" id="Fill-8" fill="#373463"></path>
                                    <path d="M260.89947,39.0641949 L260.412683,38.9663875 C262.010394,32.325669 264.795785,19.7492607 262.965789,19.6718298 C260.483378,19.5719847 255.722561,37.6582128 255.722561,37.6582128 L255.682164,38.029066 L255.30041,37.9536728 C256.708255,32.2686146 260.352087,16.8007735 258.328184,16.7168008 C255.841733,16.6153469 251.082937,34.701575 251.082937,34.701575 L250.834494,37.0672928 L248.354102,36.5741802 C249.364033,31.1234524 250.937507,21.5729622 249.570059,21.4507028 C247.655229,21.2815775 244.609276,35.830436 244.609276,35.830436 L239.949453,51.8851218 C239.949453,51.8851218 239.642434,43.4736809 238.998098,38.927672 C238.355781,34.3796255 236.148071,39.2740734 235.770357,41.9332135 C235.388603,44.5943913 235.828933,56.6084067 235.828933,56.6084067 L247.897613,86.7168008 C247.897613,86.7168008 249.002478,84.2695769 254.304618,72.7649753 C259.608777,61.258336 265.030089,39.8833323 265.030089,39.8833323 C265.030089,39.8833323 267.280216,31.6063767 266.417735,31.3231426 C265.363367,30.9747035 262.842578,35.3250975 260.89947,39.0641949" id="Fill-12" fill="#FFBB99"></path>
                                    <g id="Group-16" transform="translate(0.002992, 0.256772)">
                                        <mask id="mask-6" fill="white">
                                            <use xlink:href="#path-5"></use>
                                        </mask>
                                        <g id="Clip-15"></g>
                                        <path d="M4.084704,20.2574855 L4.565184,20.285526 C4.675424,13.9523785 5.108064,2.01513645 6.844864,2.37766008 C9.203584,2.87037175 9.290944,20.2154248 9.290944,20.2154248 L9.238944,20.5559166 L9.615424,20.5799513 C9.671584,15.1481056 9.996064,0.416827869 11.922144,0.819409354 C14.278784,1.31412392 14.368224,18.659177 14.368224,18.659177 L14.027104,20.8363216 L16.477344,20.978527 C16.849664,15.851121 17.687904,6.91421263 19.002464,7.12852218 C20.841184,7.42695323 20.175584,21.1948394 20.175584,21.1948394 L20.662304,36.6912223 C20.662304,36.6912223 22.989824,29.2204315 24.697504,25.2927584 C26.405184,21.3650853 27.291264,26.274176 27.002144,28.7517546 C26.713024,31.2273303 23.389184,41.9007469 23.389184,41.9007469 L4.744064,66.0616446 C4.744064,66.0616446 4.301024,63.6060979 2.108704,52.0373881 C-0.085696,40.4686784 0.003744,20.0191413 0.003744,20.0191413 C0.003744,20.0191413 -0.102336,12.0636504 0.775424,12.0135781 C1.850784,11.9494855 3.165344,16.4459802 4.084704,20.2574855" id="Fill-14" fill="#FFBB99" mask="url(#mask-6)"></path>
                                    </g>
                                    <path d="M103.455797,148.389032 C103.455797,148.389032 76.9682246,142.767695 62.7674706,131.861495 C45.7686482,118.807502 33.6315456,92.7660035 28.8608692,76.7361266 C24.0881696,60.7042348 22.5121064,41.8213782 22.5121064,41.8213782 L1.81287382,52.0183625 C1.81287382,52.0183625 6.64424587,89.4294681 17.3833258,113.94575 C26.9975134,135.895157 41.3985629,156.351585 62.5408736,169.026793 C83.6872307,181.702001 87.604122,183.108343 87.604122,183.108343 C87.604122,183.108343 86.8514962,284.616794 86.6795252,285.954631 C86.5075543,287.292469 74.2470372,357.851329 81.2310809,402.739418 C88.2131014,447.629521 126.208565,502.821378 126.208565,502.821378 L152.930827,486.269664 C152.930827,486.269664 120.946254,426.854752 115.388558,392.127381 C109.832884,357.397996 121.178921,311.671744 121.178921,311.671744 L133.68829,306.463445 C133.68829,306.463445 174.382686,340.681067 185.338247,368.840137 C196.293808,396.999206 195.466324,467.199429 195.466324,467.199429 L233.999955,454.425495 C233.999955,454.425495 227.2243,397.315533 218.150304,358.056841 C209.07833,318.798149 156.204345,273.047719 156.204345,273.047719 L148.560742,187.250805 C148.560742,187.250805 177.722968,180.082089 201.53791,161.348329 C225.354875,142.612554 245.099163,98.8628371 250.405984,85.9317473 C255.710782,73.0006575 257.812874,63.7445923 257.812874,63.7445923 L236.267949,54.1943639 C236.267949,54.1943639 230.032485,77.892631 217.017319,101.179876 C204.002153,124.46712 183.43645,142.71128 159.320054,149.61404 C135.203657,156.518815 103.455797,148.389032 103.455797,148.389032" id="Fill-17" fill="#FFBB99"></path>
                                    <path d="M133.080572,306.139472 C133.080572,306.139472 173.531633,340.241605 184.422226,368.305635 C195.312819,396.369665 194.490242,466.332954 194.490242,466.332954 L232.797375,453.602133 C232.797375,453.602133 226.059889,396.684923 217.041714,357.556726 C208.023539,318.432545 155.463103,272.836529 155.463103,272.836529 L153.773704,253.834674 C146.977893,256.467183 137.863181,258.862746 125.866434,260.011331 C106.621358,261.852682 94.0252761,260.577592 86.6602989,259.097684 C86.5255492,274.003186 86.406889,285.262131 86.3505756,285.699878 C86.1796245,287.033201 73.9918141,357.353917 80.9324302,402.090502 C87.8730464,446.827088 125.645203,501.834674 125.645203,501.834674 L152.208998,485.338824 C152.208998,485.338824 120.412087,426.124444 114.88936,391.514283 C109.366632,356.902113 120.643374,311.330193 120.643374,311.330193 L133.080572,306.139472 Z" id="Fill-19" fill="#F95854"></path>
                                    <path d="M155.128831,260.297729 L148.593638,187.245631 C148.593638,187.245631 177.920622,180.06415 201.872145,161.295011 C207.963791,156.521485 213.786868,150.123144 219.178605,143.026436 L201.756171,122.622389 C189.987941,135.3565 175.495357,144.95603 159.413736,149.541844 C135.163125,156.458915 103.233864,148.314654 103.233864,148.314654 C103.233864,148.314654 76.5966456,142.683307 62.3156619,131.755668 C49.4426339,121.907874 39.3448248,104.682814 33.0924437,89.9161703 L12.1786053,102.47468 C13.0962181,105.863581 13.9019268,105.996795 14.8765088,108.917426 C22.4717378,131.693097 40.8260267,156.291387 62.0877847,168.989167 C83.353612,181.686947 87.2926324,183.095793 87.2926324,183.095793 C87.2926324,183.095793 86.8979165,236.270647 86.61307,266.221745 C96.9875871,269.84478 120.495563,274.398299 155.128831,260.297729" id="Fill-21" fill="#59BAF7"></path>
                                    <path d="M107.973135,180.152758 C107.973135,180.152758 101.545194,187.870236 90.4893766,196.347889 C79.4355704,204.825543 25.8197832,230.807187 25.8197832,230.807187 L18.5370626,245.152758 L38.4785635,244.991145 C38.4785635,244.991145 102.013814,198.261297 111.537063,180.605671 L107.973135,180.152758 Z" id="Fill-23" fill="#373463"></path>
                                    <polygon id="Fill-25" fill="#373463" points="106.372479 165.762123 109.169996 175.25516 108.701456 186.139941 118.499626 178.312136 127.372479 170.822645 121.934279 154.139941"></polygon>
                                    <path d="M111.854521,143.50301 C111.854521,143.50301 106.865449,143.319322 103.37411,149.235698 C99.8787226,155.152075 96.1141484,177.392483 96.1141484,177.392483 C96.1141484,177.392483 107.91791,167.083737 114.192201,167.887121 C120.468515,168.686467 132.426098,182.029097 132.426098,182.029097 C132.426098,182.029097 137.364572,161.302603 135.812191,155.650657 C134.257786,149.998711 119.486892,140.842558 111.854521,143.50301" id="Fill-27" fill="#92CFFA"></path>
                                    <path d="M110.809893,131.4127 C110.809893,131.4127 107.011681,149.901486 106.930602,157.756548 C106.849524,165.613665 112.339988,177.4127 112.339988,177.4127 L127.830122,159.014345 L133.929713,140.815345 L110.809893,131.4127 Z" id="Fill-29" fill="#FF967E"></path>
                                    <path d="M173.600047,109.896411 C170.736383,131.799905 149.98197,147.247189 127.246278,144.394213 C104.508544,141.543238 88.3968609,121.474372 91.2584821,99.5708782 C94.1221457,77.6653838 114.876558,62.2200996 137.614293,65.0730756 C160.352028,67.924051 176.461668,87.9929171 173.600047,109.896411" id="Fill-31" fill="#373463"></path>
                                    <path d="M111.029864,114.981153 C111.029864,114.981153 109.215726,103.597756 104.229974,109.473191 C99.2463077,115.346561 103.842124,123.364899 107.076294,123.775725 C110.308379,124.184487 111.029864,114.981153 111.029864,114.981153" id="Fill-33" fill="#FFBB99"></path>
                                    <path d="M145.951602,120.379184 C145.951602,120.379184 151.638957,116.679538 152.694821,122.149094 C153.750685,127.616677 149.720611,131.977327 146.986194,132.95206 C144.251778,133.928766 142.867165,131.081519 142.867165,131.081519 L145.951602,120.379184 Z" id="Fill-35" fill="#FFBB99"></path>
                                    <path d="M116.079938,93.9044641 C116.079938,93.9044641 104.830971,121.210075 108.33146,133.065072 C111.829923,144.920069 122.199717,149.441953 133.714057,144.986955 C145.230423,140.52993 154.656219,102.496246 154.656219,102.496246 C154.656219,102.496246 144.067644,78.3241322 116.079938,93.9044641" id="Fill-37" fill="#FFBB99"></path>
                                    <path d="M33.7986712,90.5370786 L12.8185735,103.678077 C13.7371417,107.224161 14.547523,107.363555 15.5232465,110.421762 C16.0662224,112.117716 16.6786012,113.826341 17.329764,115.537079 L40.8185735,105.538768 C38.1200242,100.497373 35.7684896,95.3905043 33.7986712,90.5370786" id="Fill-39" fill="#92CFFA"></path>
                                    <path d="M190.949453,133.420175 L210.672961,153.853629 C213.874564,150.561328 216.980323,146.921207 219.949453,143.061199 L202.485421,122.853629 C198.892284,126.695646 195.017733,130.207833 190.949453,133.420175" id="Fill-41" fill="#92CFFA"></path>
                                </g>
                                <g id="Confettis" stroke-width="1" fill="none" fill-rule="evenodd" transform="translate(91.000000, 0.000000)">
                                    <g id="Confetti" transform="translate(29.000000, 223.000000)">
                                        <path d="M179.736842,30 C175.105263,38.1274397 179.736842,42.5666066 193.631579,43.3175007 C207.526316,44.0683949 208.684211,49.9625613 197.105263,61" id="Path-10" stroke="#FF6363" stroke-width="5"></path>
                                        <path d="M383.28655,95 C379.85575,101.030036 383.28655,104.323611 393.578947,104.880726 C403.871345,105.437841 404.729045,109.810933 396.152047,118" id="Path-10" stroke="#FF6363" stroke-width="5" transform="translate(392.000000, 106.500000) scale(-1, 1) translate(-392.000000, -106.500000) "></path>
                                        <path d="M38.0526316,167 C27.245614,186.13881 38.0526316,196.592332 70.4736842,198.360566 C102.894737,200.128801 105.596491,214.008612 78.5789474,240" id="Path-10" stroke="#FF6363" stroke-width="5" transform="translate(65.500000, 203.500000) rotate(-90.000000) translate(-65.500000, -203.500000) "></path>
                                        <circle id="Oval" fill="#FFB500" cx="153" cy="20" r="8"></circle>
                                        <circle id="Oval" fill="#FFB500" cx="222" cy="92" r="4"></circle>
                                        <circle id="Oval" fill="#FFB500" cx="60" cy="56" r="2"></circle>
                                        <polygon id="Path-11" fill="#77A979" points="194 14 201.134097 2 207 2 201.134097 14"></polygon>
                                        <polygon id="Path-11" fill="#77A979" transform="translate(265.353553, 64.732233) rotate(-45.000000) translate(-265.353553, -64.732233) " points="260.853553 69.232233 265.792543 60.232233 269.853553 60.232233 265.792543 69.232233"></polygon>
                                        <polygon id="Path-11" fill="#77A979" transform="translate(147.500000, 85.000000) rotate(-90.000000) translate(-147.500000, -85.000000) " points="141 91 148.134097 79 154 79 148.134097 91"></polygon>
                                        <polygon id="Path-11" fill="#77A979" points="90 29 93.8414366 22 97 22 93.8414366 29"></polygon>
                                        <polygon id="Path-11" fill="#77A979" transform="translate(39.000000, 41.000000) scale(-1, 1) translate(-39.000000, -41.000000) " points="34 46 39.4877666 36 44 36 39.4877666 46"></polygon>
                                        <circle id="Oval" fill="#FFB500" cx="14" cy="93" r="14"></circle>
                                        <polygon id="Path-12" fill="#77A979" points="303 10 308.870446 22 318 17.0262377 310.5 11.8631655"></polygon>
                                        <circle id="Oval" fill="#FFB500" cx="367" cy="8" r="8"></circle>
                                    </g>
                                    <g id="Confetti" transform="translate(544.500000, 291.500000) rotate(180.000000) translate(-544.500000, -291.500000) translate(260.000000, 188.000000)">
                                        <path d="M188.736842,113 C184.105263,121.12744 188.736842,125.566607 202.631579,126.317501 C216.526316,127.068395 217.684211,132.962561 206.105263,144" id="Path-10" stroke="#FF6363" stroke-width="5"></path>
                                        <path d="M554.02924,0 C551.2846,4.71915852 554.02924,7.29673931 562.263158,7.73274236 C570.497076,8.16874542 571.183236,11.5911646 564.321637,18" id="Path-10" stroke="#FF6363" stroke-width="5"></path>
                                        <circle id="Oval" fill="#FFB500" cx="145" cy="24" r="8"></circle>
                                        <circle id="Oval" fill="#FFB500" cx="252" cy="121" r="4"></circle>
                                        <circle id="Oval" fill="#FFB500" cx="354.5" cy="105.5" r="6.5"></circle>
                                        <polygon id="Path-11" fill="#77A979" points="393 18 400.134097 6 406 6 400.134097 18"></polygon>
                                        <polygon id="Path-11" fill="#77A979" transform="translate(285.353553, 146.732233) rotate(-45.000000) translate(-285.353553, -146.732233) " points="280.853553 151.232233 285.792543 142.232233 289.853553 142.232233 285.792543 151.232233"></polygon>
                                        <polygon id="Path-11" fill="#77A979" transform="translate(157.500000, 77.000000) rotate(-90.000000) translate(-157.500000, -77.000000) " points="151 83 158.134097 71 164 71 158.134097 83"></polygon>
                                        <polygon id="Path-12" fill="#77A979" points="303 12 308.870446 24 318 19.0262377 310.5 13.8631655"></polygon>
                                    </g>
                                    <g id="flag-right" transform="translate(87.000000, 0.000000)">
                                        <g id="Group-2" transform="translate(431.000000, 306.000000) rotate(-15.000000) translate(-431.000000, -306.000000) translate(283.000000, 207.000000)">
                                            <g id="Path-8" transform="translate(219.630607, 138.337883)">
                                                <mask id="mask-8" fill="white">
                                                    <use xlink:href="#path-7"></use>
                                                </mask>
                                                <use id="Mask" fill="#FFCDCD" xlink:href="#path-7"></use>
                                                <polygon fill-opacity="0.15" fill="#000000" mask="url(#mask-8)" transform="translate(37.707476, 35.451258) rotate(15.000000) translate(-37.707476, -35.451258) " points="13.0673 65.7397755 42.7135137 5.16274054 62.3476526 8.8333368"></polygon>
                                            </g>
                                            <g id="Path-7" transform="translate(148.980866, 111.294383)">
                                                <mask id="mask-10" fill="white">
                                                    <use xlink:href="#path-9"></use>
                                                </mask>
                                                <use id="Mask" fill="#77A979" xlink:href="#path-9"></use>
                                                <polygon fill-opacity="0.15" fill="#000000" mask="url(#mask-10)" transform="translate(33.360383, 38.468155) rotate(15.000000) translate(-33.360383, -38.468155) " points="6.82408099 68.3279497 43.386533 8.60836011 59.8966859 13.4568834"></polygon>
                                            </g>
                                            <g id="Path-6" transform="translate(69.735533, 70.987600)">
                                                <mask id="mask-12" fill="white">
                                                    <use xlink:href="#path-11"></use>
                                                </mask>
                                                <use id="Mask" fill="#FFB500" xlink:href="#path-11"></use>
                                                <polygon fill-opacity="0.15" fill="#000000" mask="url(#mask-12)" transform="translate(39.241140, 47.387998) rotate(15.000000) translate(-39.241140, -47.387998) " points="7.00040721 78.6800676 51.1094842 16.0959286 71.481873 25.1514952"></polygon>
                                            </g>
                                            <g id="Path-9" transform="translate(0.443037, 12.464522)">
                                                <mask id="mask-14" fill="white">
                                                    <use xlink:href="#path-13"></use>
                                                </mask>
                                                <use id="Mask" fill="#FF6363" xlink:href="#path-13"></use>
                                                <polygon fill-opacity="0.15" fill="#000000" mask="url(#mask-14)" transform="translate(39.332588, 53.937746) rotate(15.000000) translate(-39.332588, -53.937746) " points="5.57865146 79.9357899 53.5460772 27.9397015 73.0865252 41.2194268"></polygon>
                                            </g>
                                            <path d="M10.1736152,0.893999286 C65.0498472,75.2469405 160.049847,127.913607 295.173615,158.893999" id="Path-5" stroke="#FFFFFF"></path>
                                        </g>
                                        <g id="Group-2" transform="translate(175.000000, 148.000000) rotate(22.000000) translate(-175.000000, -148.000000) translate(27.000000, 49.000000)">
                                            <g id="Path-8" transform="translate(219.630607, 138.337883)">
                                                <mask id="mask-16" fill="white">
                                                    <use xlink:href="#path-15"></use>
                                                </mask>
                                                <use id="Mask" fill="#FFCDCD" xlink:href="#path-15"></use>
                                                <polygon fill-opacity="0.15" fill="#000000" mask="url(#mask-16)" transform="translate(37.707476, 35.451258) rotate(15.000000) translate(-37.707476, -35.451258) " points="13.0673 65.7397755 42.7135137 5.16274054 62.3476526 8.8333368"></polygon>
                                            </g>
                                            <g id="Path-7" transform="translate(148.980866, 111.294383)">
                                                <mask id="mask-18" fill="white">
                                                    <use xlink:href="#path-17"></use>
                                                </mask>
                                                <use id="Mask" fill="#77A979" xlink:href="#path-17"></use>
                                                <polygon fill-opacity="0.15" fill="#000000" mask="url(#mask-18)" transform="translate(33.360383, 38.468155) rotate(15.000000) translate(-33.360383, -38.468155) " points="6.82408099 68.3279497 43.386533 8.60836011 59.8966859 13.4568834"></polygon>
                                            </g>
                                            <path d="M10.1736152,0.893999286 C65.0498472,75.2469405 160.049847,127.913607 295.173615,158.893999" id="Path-5" stroke="#FFFFFF"></path>
                                        </g>
                                    </g>
                                    <g id="flag-left" transform="translate(0.000000, 82.000000)">
                                        <g id="Group-2" transform="translate(173.000000, 264.000000) scale(-1, 1) rotate(-20.000000) translate(-173.000000, -264.000000) translate(25.000000, 165.000000)">
                                            <g id="Path-8" transform="translate(219.630607, 138.337883)">
                                                <mask id="mask-20" fill="white">
                                                    <use xlink:href="#path-19"></use>
                                                </mask>
                                                <use id="Mask" fill="#FFCDCD" xlink:href="#path-19"></use>
                                                <polygon fill-opacity="0.15" fill="#000000" mask="url(#mask-20)" transform="translate(37.707476, 35.451258) rotate(15.000000) translate(-37.707476, -35.451258) " points="13.0673 65.7397755 42.7135137 5.16274054 62.3476526 8.8333368"></polygon>
                                            </g>
                                            <g id="Path-7" transform="translate(148.980866, 111.294383)">
                                                <mask id="mask-22" fill="white">
                                                    <use xlink:href="#path-21"></use>
                                                </mask>
                                                <use id="Mask" fill="#77A979" xlink:href="#path-21"></use>
                                                <polygon fill-opacity="0.15" fill="#000000" mask="url(#mask-22)" transform="translate(33.360383, 38.468155) rotate(15.000000) translate(-33.360383, -38.468155) " points="6.82408099 68.3279497 43.386533 8.60836011 59.8966859 13.4568834"></polygon>
                                            </g>
                                            <g id="Path-6" transform="translate(69.735533, 70.987600)">
                                                <mask id="mask-24" fill="white">
                                                    <use xlink:href="#path-23"></use>
                                                </mask>
                                                <use id="Mask" fill="#FFB500" xlink:href="#path-23"></use>
                                                <polygon fill-opacity="0.15" fill="#000000" mask="url(#mask-24)" transform="translate(39.241140, 47.387998) rotate(15.000000) translate(-39.241140, -47.387998) " points="7.00040721 78.6800676 51.1094842 16.0959286 71.481873 25.1514952"></polygon>
                                            </g>
                                            <g id="Path-9" transform="translate(0.443037, 12.464522)">
                                                <mask id="mask-26" fill="white">
                                                    <use xlink:href="#path-25"></use>
                                                </mask>
                                                <use id="Mask" fill="#FF6363" xlink:href="#path-25"></use>
                                                <polygon fill-opacity="0.15" fill="#000000" mask="url(#mask-26)" transform="translate(39.332588, 53.937746) rotate(15.000000) translate(-39.332588, -53.937746) " points="5.57865146 79.9357899 53.5460772 27.9397015 73.0865252 41.2194268"></polygon>
                                            </g>
                                            <path d="M10.1736152,0.893999286 C65.0498472,75.2469405 160.049847,127.913607 295.173615,158.893999" id="Path-5" stroke="#FFFFFF"></path>
                                        </g>
                                        <g id="Group-2" transform="translate(435.000000, 136.000000) scale(-1, 1) rotate(16.000000) translate(-435.000000, -136.000000) translate(287.000000, 37.000000)">
                                            <g id="Path-8" transform="translate(219.630607, 138.337883)">
                                                <mask id="mask-28" fill="white">
                                                    <use xlink:href="#path-27"></use>
                                                </mask>
                                                <use id="Mask" fill="#FFCDCD" xlink:href="#path-27"></use>
                                                <polygon fill-opacity="0.15" fill="#000000" mask="url(#mask-28)" transform="translate(37.707476, 35.451258) rotate(15.000000) translate(-37.707476, -35.451258) " points="13.0673 65.7397755 42.7135137 5.16274054 62.3476526 8.8333368"></polygon>
                                            </g>
                                            <g id="Path-7" transform="translate(148.980866, 111.294383)">
                                                <mask id="mask-30" fill="white">
                                                    <use xlink:href="#path-29"></use>
                                                </mask>
                                                <use id="Mask" fill="#77A979" xlink:href="#path-29"></use>
                                                <polygon fill-opacity="0.15" fill="#000000" mask="url(#mask-30)" transform="translate(33.360383, 38.468155) rotate(15.000000) translate(-33.360383, -38.468155) " points="6.82408099 68.3279497 43.386533 8.60836011 59.8966859 13.4568834"></polygon>
                                            </g>
                                            <g id="Path-6" transform="translate(69.735533, 70.987600)">
                                                <mask id="mask-32" fill="white">
                                                    <use xlink:href="#path-31"></use>
                                                </mask>
                                                <use id="Mask" fill="#FFB500" xlink:href="#path-31"></use>
                                                <polygon fill-opacity="0.15" fill="#000000" mask="url(#mask-32)" transform="translate(39.241140, 47.387998) rotate(15.000000) translate(-39.241140, -47.387998) " points="7.00040721 78.6800676 51.1094842 16.0959286 71.481873 25.1514952"></polygon>
                                            </g>
                                            <path d="M10.1736152,0.893999286 C65.0498472,75.2469405 160.049847,127.913607 295.173615,158.893999" id="Path-5" stroke="#FFFFFF"></path>
                                        </g>
                                    </g>
                                </g>
                                <g id="GIrl-1" stroke-width="1" fill="none" fill-rule="evenodd" transform="translate(475.000000, 561.000000)">
                                    <path d="M141.327004,133.928843 C141.327004,133.928843 138.08146,122.14523 135.22565,104.603129 C132.37208,87.0632696 117.306841,79.0999761 97.3923255,82.9516647 C77.4800495,86.8011128 74.0038006,103.913007 61.7450957,122.739004 C49.484151,141.565 -3.29793945,169.779348 0.162630447,195.455032 C3.6209605,221.132957 26.3711278,218.052054 19.7971649,229.748281 C13.223202,241.444509 -4.48954022,263.947423 21.3784998,283.051261 C47.2487796,302.157339 74.0105202,282.580723 85.9130887,303.049121 C97.8178972,323.519759 111.068856,341.187337 152.936152,328.998165 C194.801209,316.811234 196.180957,287.991909 189.181422,271.906235 C182.181888,255.818321 187.174516,250.375766 210.200185,243.266162 C233.223614,236.1588 241.390111,209.537559 229.709287,194.28765 C218.028464,179.037741 206.278205,190.382186 180.905173,172.468136 C155.53214,154.554087 144.729338,143.411301 141.327004,133.928843" id="Fill-4" fill="#373463"></path>
                                    <path d="M92.0670483,151 C92.0670483,151 91.9146801,160.857828 89.1743256,170.023209 C86.431697,179.190832 83,183.116932 83,183.116932 C83,183.116932 89.8565715,183.054186 97.1315872,184.580256 C104.404329,186.106326 112,182.980236 112,182.980236 C112,182.980236 109.875941,175.565016 110.517252,166.258456 C111.160838,156.951896 111.372334,153.850456 111.372334,153.850456 L92.0670483,151 Z" id="Fill-6" fill="#FF967E"></path>
                                    <path d="M122.926459,125.442491 C123.554791,116.166946 120.215654,106.102184 110.638077,102.965494 C100.465829,99.6314992 90.2397229,105.178441 88.1437864,115.805969 C85.0873994,131.303326 81.7617271,163.537918 105.337647,163.997547 C120.976385,164.302472 122.201633,136.09244 122.926459,125.442491" id="Fill-8" fill="#FFBB99"></path>
                                    <path d="M121.899242,174.566303 C121.899242,174.566303 103.841115,180.628646 86.0338265,175.247389 C68.2310175,169.863885 55.7070134,155.464415 51.5077095,125.48088 C47.3084055,95.4973456 46.3050519,71.9830073 47.7428935,50.7209745 C49.1829748,29.4566938 49.1471408,29.9759379 50.8738945,27.4876125 C52.6006483,25.0015348 63.2859172,20.5194021 64.7394362,14.3671467 C66.1929553,8.2148913 61.7293752,-2.50940923 60.4841416,0.531877424 C59.2411476,3.57091626 60.0630914,6.75381493 60.0630914,6.75381493 C60.0630914,6.75381493 60.0742895,-1.05957191 56.7641182,1.84010272 C53.4517072,4.73977736 56.6812519,10.6919777 56.6812519,10.6919777 C56.6812519,10.6919777 52.1818377,0.484673419 51.4539584,3.56192503 C50.7283187,6.63692882 51.9265201,11.9305209 51.9265201,11.9305209 C51.9265201,11.9305209 46.8044891,3.24498384 46.629798,5.83895635 C46.4528674,8.43068104 48.5805147,15.3494396 48.5805147,15.3494396 C48.5805147,15.3494396 35.8616629,19.1707162 35.5817093,23.3201731 C35.3017557,27.46963 35.010604,39.4324737 35.010604,39.4324737 C35.010604,39.4324737 32.193151,88.7359337 37.0307491,132.309727 C41.8683473,175.881272 66.6072866,201.535525 66.6072866,201.535525 C66.6072866,201.535525 48.7820813,211.781042 49.489804,224.335059 C50.1975267,236.886829 58.3856094,246.302905 57.9981536,252.007846 C57.6129375,257.712787 53.7047853,269.428372 56.5311968,296.712287 C59.3553687,323.99845 60.8514407,340.250115 60.8514407,340.250115 C60.8514407,340.250115 32.1909114,364.870376 15.0286361,396.000293 C-2.13139946,427.134707 2.68380239,432.67331 16.1708468,448.178702 C29.653412,463.68859 78.5176324,508.698733 86.2510705,524.85599 C93.982269,541.013247 102.936305,569.758238 104.125548,582.865217 C105.31703,595.969948 106.409969,602.819025 106.409969,602.819025 C106.409969,602.819025 127.630452,603.745122 139.209332,601.4074 C150.788213,599.071926 162.096099,593.068026 162.096099,593.068026 C162.096099,593.068026 158.89343,563.675665 151.077125,533.444871 C143.260821,503.214077 118.224011,466.599503 110.495052,450.442247 C102.763853,434.28499 98.4032962,422.005205 98.4032962,422.005205 C98.4032962,422.005205 114.871287,393.431047 127.469198,376.053229 C140.064871,358.67766 150.629199,340.641234 145.211537,320.995376 C139.791636,301.349519 112.470404,275.519936 110.860111,268.634895 C109.249818,261.754349 111.632783,257.22726 120.436764,242.196156 C129.240745,227.1673 134.777107,206.703239 148.338059,190.43584 C161.896772,174.166193 177.218072,154.893472 182.275154,133.87645 C187.329996,112.859428 190.92684,75.071498 193.153031,57.5093601 C194.745407,44.9620858 193.242616,40.8418504 196.378096,40.5361483 C199.515816,40.2281984 219.676954,33.7882233 219.956908,29.6387664 C220.239101,25.4893096 219.085692,11.8653344 217.945721,13.3511367 C216.80575,14.8346911 216.489963,19.5033921 216.489963,19.5033921 L215.797917,22.0613996 C215.797917,22.0613996 212.953589,10.404258 211.638927,14.4840328 C210.324265,18.5615598 209.421694,24.2327839 209.421694,24.2327839 C209.421694,24.2327839 206.682628,11.0201579 204.886446,14.5447237 C203.090264,18.0692894 204.631128,25.9883233 204.631128,25.9883233 C204.631128,25.9883233 199.824885,12.6363332 199.063411,16.230581 C198.299698,19.8270767 198.94695,25.6017 198.94695,25.6017 C198.94695,25.6017 186.028772,24.7205586 185.466625,33.0172246 C184.906718,41.3161383 182.281873,72.3966043 170.008707,108.031133 C157.733302,143.663414 138.855471,169.470518 121.899242,174.566303" id="Fill-12" fill="#FFBB99"></path>
                                    <path d="M105.99549,602.819387 C105.99549,602.819387 127.337298,603.743629 138.98238,601.410591 C150.627462,599.079796 162,593.087925 162,593.087925 C162,593.087925 158.77902,563.752208 150.918026,533.584226 C143.057033,503.411756 117.877077,466.872784 110.103929,450.747898 C102.328528,434.623013 97.9430392,422.367831 97.9430392,422.367831 C97.9430392,422.367831 114.505184,393.850921 127.175123,376.50792 C139.84281,359.167163 150.469792,341.166873 145.018903,321.560376 C141.944331,310.500877 131.866943,297.48297 123.36851,287 C120.104734,289.097491 116.514355,291.520262 112.606382,294.342341 C97.5443585,305.208917 68.7019455,302.78839 56.2212106,301.09918 C58.8070044,326.033529 60.1764841,340.776538 60.1764841,340.776538 C60.1764841,340.776538 31.3520906,365.347472 14.0916915,396.41502 C-3.16645523,427.487055 1.67627714,433.012319 15.2404326,448.488889 C28.8023357,463.967702 77.9436808,508.887667 85.7213342,525.012552 C93.4967352,541.137438 102.501965,569.824839 103.698007,582.905557 C104.896302,595.984033 105.99549,602.819387 105.99549,602.819387" id="Fill-14" fill="#59BAF7"></path>
                                    <path d="M109.810372,301 C109.810372,301 127.549792,314.563459 126.747257,337.696368 C125.942461,360.829277 79.0450118,421.042681 80.0148362,429.610258 C80.9869211,438.177836 116.827469,505.523399 129.279199,539.598278 C141.728669,573.673156 139.906575,601 139.906575,601" id="Stroke-16" stroke="#373463" stroke-width="0.5"></path>
                                    <path d="M128.243074,291.570134 C120.256908,281.467996 112.620814,272.956906 111.789674,269.425996 C110.16579,262.537459 112.568868,258.005112 121.447154,242.95655 C130.32544,227.910238 135.910788,207.42241 149.583936,191.136116 C155.733917,183.810997 162.23397,175.873764 168,167.44819 C163.216431,164.983979 158.118926,161.250532 154.489466,155.588474 C153.267601,153.684618 152.178989,151.884281 151.194269,150.178463 C142.11949,163.500952 132.238416,172.468878 122.921975,175.248147 C122.921975,175.248147 104.709179,181.317532 86.7538554,175.930025 C71.1293362,171.240148 59.5453294,159.699992 54.0074108,137 C49.9940008,140.285614 45.1336415,144.237352 40,148.357872 C48.0313371,182.550762 67.1633553,202.248693 67.1633553,202.248693 C67.1633553,202.248693 49.1877051,212.50611 49.901401,225.074708 C50.6150969,237.641057 58.8722871,247.068068 58.4815612,252.779636 C58.0930938,258.491203 54.1519568,270.220395 57.0022232,297.535999 C57.4268271,301.613761 57.817553,305.41022 58.1811766,308.977137 C67.0662385,309.085157 80.511275,308.860115 95.1939867,307.212807 C108.957476,305.671269 120.478244,298.208875 128.243074,291.570134" id="Fill-18" fill="#FCC225"></path>
                                    <path d="M88.0297283,347 C88.0297283,347 48.3674959,410.38542 50.0521888,427.90345 C51.7368818,445.419232 90,531 90,531" id="Stroke-20" stroke="#373463" stroke-width="0.5"></path>
                                </g>
                                <g id="Man-2" stroke-width="1" fill="none" fill-rule="evenodd" transform="translate(205.000000, 689.000000)">
                                    <path d="M106.270162,125.732575 C106.270162,125.732575 116.03387,158.421495 145.323108,155.449601 C174.612345,152.477707 184.376053,129.199784 184.376053,129.199784 C184.376053,129.199784 182.423311,111.368421 182.911497,108.891843 C183.399682,106.415264 191.696949,109.882474 191.696949,109.882474 C191.696949,109.882474 203.413398,106.91058 204.389768,109.882474 C205.366139,112.854368 204.877954,113.844999 204.877954,115.330946 L204.877954,128.704469 C204.877954,132.171678 199.021614,136.627607 193.64969,145.543288 C188.281536,154.45897 180.47057,167.335264 154.59863,174.269683 C128.72669,181.204103 114.569314,178.232209 105.781977,167.335264 C96.9965252,156.440232 106.270162,125.732575 106.270162,125.732575" id="Fill-4" fill="#FFBB99"></path>
                                    <path d="M105.284676,126 C105.284676,126 95.9795187,156.784377 104.794832,167.706629 C106.447821,169.754191 108.28994,171.523761 110.362796,173 L126,152.41701 C110.809141,144.47216 105.284676,126 105.284676,126" id="Fill-6" fill="#E6E6E6"></path>
                                    <path d="M149.267143,301.32301 C149.267143,301.32301 147.804348,294.951646 146.829152,288.582174 C145.853955,282.21081 128.789899,246.925145 128.789899,246.925145 C128.789899,246.925145 151.705134,270.448291 154.143126,278.28997 C156.581117,286.131649 149.267143,301.32301 149.267143,301.32301 M136.591471,203.797802 C133.663999,199.386857 113.674353,169.982452 112.699157,140.087943 C111.72396,110.193433 124.889113,102.353646 126.839506,88.1406022 C128.789899,73.9275586 109.773567,66.0858793 101.971995,70.0067189 C101.971995,70.0067189 87.8335285,67.0679815 51.7531403,84.7098675 C15.6727521,102.353646 2.02188366,143.518677 1.04668715,160.670458 C0.0696080249,177.824132 14.6994383,179.294446 19.5735382,171.942872 C24.4495207,164.591298 27.8627085,147.929622 37.1270753,133.226473 C46.3895595,118.525217 67.3562844,110.683538 67.3562844,110.683538 C67.3562844,110.683538 55.1663281,146.459307 63.9430967,192.525388 C72.7179826,238.593361 99.0482883,282.700914 100.511083,298.382381 C101.971995,314.065739 88.3211267,336.11857 79.0586425,355.722768 C69.7942757,375.325074 50.2903456,401.298744 50.2903456,401.298744 L99.534004,416 C99.534004,416 113.186755,393.457064 128.302301,360.621925 C128.302301,360.621925 169.256789,336.11857 184.372335,318.966789 C199.485998,301.813115 201.923989,280.740495 186.810326,258.685772 C171.69478,236.632941 139.515178,208.208746 136.591471,203.797802 Z" id="Fill-12" fill="#E6E6E6"></path>
                                    <polygon id="Fill-14" fill="#FF967E" points="110.740079 51 95 78.0665422 103.795138 109 109.814087 84.3502799 120 76.1330845"></polygon>
                                    <path d="M118.991702,42.8574704 C118.991702,42.8574704 116.57934,33.9629367 112.71956,33.9629367 C108.85978,33.9629367 105,42.8574704 105,48.2930188 C105,53.7285672 111.272142,53.2344265 111.272142,53.2344265 C111.272142,53.2344265 110.307197,78.9278383 120.439119,82.3868237 C130.569179,85.845809 143.452498,73.8662343 149.385605,66.5743192 C156.622693,57.6816934 160,50.7637227 160,50.7637227 L133.946486,31 L118.991702,42.8574704 Z" id="Fill-16" fill="#FFBB99"></path>
                                    <g id="Group-20" transform="translate(112.000000, 0.000000)">
                                        <mask id="mask-34" fill="white">
                                            <use xlink:href="#path-33"></use>
                                        </mask>
                                        <g id="Clip-19"></g>
                                        <path d="M0.232135135,39.1379791 C0.232135135,39.1379791 16.4002432,0.462315816 26.2002432,0.462315816 C36.0002432,0.462315816 70.7883514,25.4313694 69.3183514,40.6067469 C67.8483514,55.7840148 48.7402432,50.8881219 48.7402432,50.8881219 L23.2602432,33.7524969 L6.60213514,46.9714077 L0.232135135,39.1379791 Z" id="Fill-18" fill="#373463" mask="url(#mask-34)"></path>
                                    </g>
                                    <path d="M12.0688483,125 C4.92890844,138.644419 2.51500193,153.86472 2.05027212,161.8764 C1.05551987,179.003254 15.0953532,178.504413 20.0671941,171.165413 C24.4802069,164.652144 27.7275545,150.824439 35,137.537144 C27.906149,130.50425 18.7440584,126.849867 12.0688483,125" id="Fill-21" fill="#FFBB99"></path>
                                    <polyline id="Stroke-23" stroke="#373463" stroke-width="0.5" points="192.367886 110 195 124.498069 190.788618 126 185 116.5"></polyline>
                                    <path d="M29.3404374,147.556183 C29.3404374,147.556183 18.7601597,169.541824 31.5011451,179.783337 C44.2402385,190.022967 66.2919441,192.949113 70.7022852,192.949113 C75.1107343,192.949113 80.9911891,190.510658 82.4613028,188.072202 C83.9314165,185.633747 95.6923262,189.047584 95.6923262,189.047584 L97.1624399,193.436804 L103.042895,196.362951 C103.042895,196.362951 105.493084,200.264479 102.552857,200.75217 C99.6126294,201.239861 97.6524778,201.239861 97.1624399,202.702935 C96.672402,204.166008 93.2421367,212.944447 85.8915682,214.405638 C78.5409996,215.868711 67.7620578,214.405638 51.1007691,212.454873 C34.4413725,210.505992 16.1642832,206.188325 5.53102833,184.170674 C-9.70555555,152.623275 11.3698583,125 11.3698583,125" id="Fill-25" fill="#FFBB99"></path>
                                    <path d="M149.847322,301.101539 C149.847322,301.101539 148.371661,294.71787 147.387888,288.336096 C146.404114,281.952427 129.189975,246.598617 129.189975,246.598617 C129.189975,246.598617 152.306756,270.167192 154.76619,278.024015 C157.225624,285.880839 149.847322,301.101539 149.847322,301.101539 M142.317086,209 L78.1514979,239.746648 C88.4469354,266.267219 99.7147514,288.074455 100.662441,298.15523 C102.136202,313.868877 88.3652708,335.964297 79.0213208,355.606356 C69.6754718,375.24652 50,401.270352 50,401.270352 L99.6767678,416 C99.6767678,416 113.449598,393.413528 128.698089,360.514975 C128.698089,360.514975 170.012781,335.964297 185.261272,318.779392 C200.507863,301.59259 202.967297,280.479273 187.720706,258.381956 C175.641941,240.878531 152.773953,219.380335 142.317086,209" id="Fill-27" fill="#77A979"></path>
                                    <path d="M150,300 C150,300 147.55792,333.157258 129,359" id="Stroke-29" stroke="#373463" stroke-width="0.5"></path>
                                    <path d="M90.8961875,234 C90.8961875,234 116,276.641251 116,309.480938 C116,342.320626 74,408 74,408" id="Stroke-31" stroke="#373463" stroke-width="0.5"></path>
                                    <path d="M129,244 C129,244 173.416884,269.845028 168.640676,291.788636 C163.864469,313.734126 145.716726,323 145.716726,323" id="Stroke-33" stroke="#373463" stroke-width="0.5"></path>
                                </g>
                            </g>
                        </g>
                    </g>
                </g>
            </g>
        </g>
    </g>
</svg>