<?xml version="1.0" encoding="UTF-8"?>
<svg width="200px" height="34px" viewBox="0 0 200 34" version="1.1" xmlns="http://www.w3.org/2000/svg" xmlns:xlink="http://www.w3.org/1999/xlink">
    <!-- Generator: Sketch 59 (86127) - https://sketch.com -->
    <title>Logo</title>
    <desc>Created with Sketch.</desc>
    <defs>
        <polygon id="path-1" points="0 0.00144053601 21.9416548 0.00144053601 21.9416548 27.6094807 0 27.6094807"></polygon>
    </defs>
    <g id="Login-&amp;-Register" stroke="none" stroke-width="1" fill="none" fill-rule="evenodd">
        <g id="Login-EO" transform="translate(-830.000000, -245.000000)">
            <g id="Group" transform="translate(770.000000, 245.000000)">
                <g id="Logo" transform="translate(60.000000, 0.000000)">
                    <g id="Group-56">
                        <path d="M22.839464,30.0435511 C22.8471692,30.0435511 22.8545394,30.0422111 22.8615745,30.0422111 L22.8166834,30.0422111 C22.8243886,30.0422111 22.8317588,30.0435511 22.839464,30.0435511" id="Fill-1" fill="#231F20"></path>
                        <path d="M22.839464,7.92053601 C22.8160134,7.92053601 22.7935678,7.9238861 22.7704523,7.9238861 L22.9171859,7.9238861 C22.8910553,7.9238861 22.8652596,7.92053601 22.839464,7.92053601" id="Fill-3" fill="#231F20"></path>
                        <path d="M23.2032496,1.95715243 L22.3372529,1.95715243 L20.0052596,1.95715243 L20.0052596,4.56653266 C20.0052596,6.00673367 21.0491457,7.17524288 22.3372529,7.17524288 L23.2032496,7.17524288 L25.5352429,7.17524288 L25.5352429,4.56653266 C25.5352429,3.12566164 24.4913568,1.95715243 23.2032496,1.95715243" id="Fill-5" fill="#AF1E40"></path>
                        <path d="M45.518593,18.0820436 C45.4917923,17.7751759 45.4515913,17.4743384 45.398325,17.179866 L45.358124,17.179866 L38.5487437,17.179866 L36.921608,17.179866 C35.3916248,17.179866 34.1510888,18.379196 34.1380235,19.8629481 L34.1380235,19.9075042 L34.1380235,22.5895812 L36.921608,22.5895812 L37.0204355,22.5895812 L37.0850921,22.5895812 L38.438191,22.5895812 L38.5487437,22.5895812 L38.7068677,22.5895812 C37.878727,23.5513903 36.9095477,24.1527303 35.801675,24.3929313 C34.6927973,24.6338023 33.6375209,24.5728308 32.6361809,24.2123618 C31.6341709,23.8518928 30.7785595,23.2244221 30.0716918,22.3292797 C29.3634841,21.4348074 28.9959799,20.3453601 28.9698492,19.0636181 C28.9698492,18.101809 29.1628141,17.2472027 29.5500838,16.499129 C29.9373534,15.7507203 30.4522613,15.1302848 31.0927973,14.6351424 C31.7343384,14.141005 32.4552764,13.8009715 33.2572864,13.6130318 C34.0582915,13.4267672 34.8599665,13.4133668 35.6606365,13.5738358 C36.5956449,13.7339698 37.4241206,14.1751759 38.1453936,14.8954439 C38.2257956,14.9497152 38.3061977,15.0160469 38.3859296,15.0964489 C38.4659966,15.1761809 38.5463987,15.2565829 38.6268007,15.3366499 L39.7326633,15.3366499 L39.8187605,15.3366499 L39.8757119,15.3366499 L41.0576214,15.3366499 L41.1537688,15.3366499 C41.3088777,15.3366499 41.4592965,15.3229146 41.6056951,15.298459 C42.7102178,15.1172194 43.5497487,14.2817085 43.5822446,13.2683082 L43.5822446,13.1557454 C43.5715243,12.7755109 43.4455611,12.421742 43.2365159,12.1165494 C43.2070352,12.0733333 43.1772194,12.0304523 43.1440536,11.9885762 C42.6857621,11.3915913 42.1758794,10.8642881 41.6117253,10.4083417 C40.1554439,9.23313233 38.5728643,8.47802345 36.8633166,8.14435511 C35.1537688,7.81068677 33.4304858,7.87098827 31.6941374,8.32425461 C29.9574539,8.77886097 28.4288107,9.56043551 27.1061977,10.6686432 C26.7296482,10.9845561 26.3819095,11.3296147 26.0572864,11.6971189 L26.0572864,26.3061642 C26.6355109,26.9976214 27.2763819,27.5989615 27.9882747,28.098124 C29.0693467,28.859933 30.2576214,29.3952764 31.5534338,29.7021441 C32.8495812,30.0096817 34.1447236,30.1088442 35.440871,30.0023116 C36.7363484,29.8957789 37.9912898,29.581541 39.2077052,29.060603 C40.4227806,28.53933 41.5045226,27.818727 42.4532663,26.8967839 C43.401005,25.9751759 44.1564489,24.8528978 44.7169179,23.5306198 C45.278392,22.2086767 45.558459,20.7064992 45.558459,19.0230821 C45.558459,18.7024791 45.5447236,18.3889112 45.518593,18.0820436" id="Fill-7" fill="#231F20"></path>
                        <g id="Group-11" transform="translate(0.000000, 2.432831)">
                            <mask id="mask-2" fill="white">
                                <use xlink:href="#path-1"></use>
                            </mask>
                            <g id="Clip-10"></g>
                            <path d="M16.1278392,18.7140034 C15.8474372,19.3820101 15.4527973,19.9635846 14.9462647,20.4570519 C14.438057,20.9518593 13.8501173,21.3454941 13.1834506,21.6386265 C12.5151089,21.9330988 11.8065662,22.0798325 11.0591625,22.0798325 C10.2842881,22.0798325 9.56268007,21.9330988 8.89534338,21.6386265 C8.22733668,21.3454941 7.64643216,20.9518593 7.15229481,20.4570519 C6.65748744,19.9635846 6.2641876,19.3820101 5.97038526,18.7140034 C5.67557789,18.0466667 5.52951424,17.3250586 5.52951424,16.5495142 C5.52951424,15.8024456 5.67557789,15.0872027 5.97038526,14.4068007 C6.2641876,13.7247236 6.65748744,13.1377889 7.15229481,12.6433166 C7.64643216,12.1498492 8.22733668,11.7555444 8.89534338,11.461742 C9.56268007,11.1679397 10.2842881,11.020536 11.0591625,11.020536 C11.8065662,11.020536 12.5151089,11.1679397 13.1834506,11.461742 C13.8501173,11.7555444 14.438057,12.1498492 14.9462647,12.6433166 C15.4527973,13.1377889 15.8474372,13.7247236 16.1278392,14.4068007 C16.4089112,15.0872027 16.5489447,15.8024456 16.5489447,16.5495142 C16.5489447,17.3250586 16.4089112,18.0466667 16.1278392,18.7140034 M21.3553099,20.0101508 C23.2092462,13.8151759 20.0742379,10.2111558 20.0742379,10.2111558 C19.8672027,9.91668342 19.6484422,9.63092127 19.4139363,9.35788945 C18.598191,8.40981575 17.6504523,7.62154104 16.5690452,6.99407035 C15.4869682,6.36659966 14.3308543,5.9320938 13.1030486,5.6918928 C11.8739028,5.45102178 10.6119263,5.43025126 9.3161139,5.63092127 C8.02030151,5.8319263 6.75798995,6.27882747 5.52951424,6.97363484 L5.52951424,4.41919598 L5.52951424,4.32036851 L5.52951424,4.25504188 L5.52951424,2.89926298 L5.52951424,2.7880402 C5.52951424,2.61082077 5.51108878,2.43728643 5.479933,2.26911223 C5.24375209,1.00177554 4.15832496,0.0386264657 2.84241206,0.00144053601 L2.6960134,0.00144053601 L-0.00013400335,0.00144053601 L-0.00013400335,2.7880402 L-0.00013400335,4.41919598 L-0.00013400335,16.5495142 C-0.00013400335,18.0727973 0.286633166,19.5096482 0.861172529,20.858057 C1.43571189,22.2074707 2.22365159,23.3820101 3.22499162,24.3836851 C4.22733668,25.3860302 5.40221106,26.1746399 6.7519598,26.7481742 C8.09969849,27.3233836 9.53654941,27.6094807 11.0591625,27.6094807 C12.5817755,27.6094807 14.0109213,27.3233836 15.3469347,26.7481742 C16.681608,26.1746399 17.8511223,25.3860302 18.8527973,24.3836851 C19.3043886,23.9320938 19.7097487,23.4439866 20.0742379,22.9220436 C20.6588275,22.0744724 21.079263,20.9334338 21.3553099,20.0101508" id="Fill-9" fill="#231F20" mask="url(#mask-2)"></path>
                        </g>
                        <path d="M22.7704188,7.9238191 C21.2756114,7.96033501 20.0742714,9.19249581 20.0742714,10.7104188 L20.0742714,11.9734003 C20.6866667,12.6976884 21.3948744,13.7405695 21.8270352,15.1298492 C22.1158124,16.0574874 22.3586935,17.1543049 22.3586935,18.4477722 C22.3586935,22.641407 20.8457956,25.1144389 20.0742714,26.1027136 L20.0742714,27.2541374 L20.0742714,30.0420771 L22.8166499,30.0420771 L22.861541,30.0420771 C24.378459,30.0296817 25.6042546,28.7871357 25.6042546,27.2541374 L25.6042546,27.0899832 L25.6042546,25.7335343 L25.6042546,12.2430821 L25.6042546,12.1774204 L25.6042546,10.8216415 L25.6042546,10.7104188 L25.6042546,9.31678392 L25.6042546,7.9238191 L22.9171524,7.9238191 L22.7704188,7.9238191 Z" id="Fill-12" fill="#231F20"></path>
                        <path d="M95.5137018,18.9509548 L113.268811,18.9509548 C113.582044,13.4048911 109.646365,9.20087102 104.23464,9.20087102 C99.1361474,9.20087102 95.5137018,13.0923283 95.5137018,18.4142714 L95.5137018,18.9509548 Z M116.131122,18.4588275 C116.131122,19.3532998 116.04134,20.5161139 115.862781,21.321474 L95.8269347,21.321474 C96.8554104,25.5700503 100.120067,28.3874707 104.368978,28.3874707 C107.767638,28.3874707 111.122077,26.6437521 112.329782,24.2286767 L114.699966,24.2286767 L114.699966,25.480268 C113.089916,28.6558124 108.751893,30.9365494 104.279196,30.9365494 C97.6155444,30.9365494 92.7408375,25.6594975 92.7408375,18.4142714 C92.7408375,11.5717253 97.6155444,6.65179229 104.368978,6.65179229 C111.166968,6.65179229 116.131122,11.5717253 116.131122,18.4588275 L116.131122,18.4588275 Z" id="Fill-14" fill="#231F20"></path>
                        <polygon id="Fill-16" fill="#231F20" points="127.625427 27.8064322 136.301809 7.54613065 138.582881 7.54613065 138.582881 9.33507538 129.54871 30.0422781 125.702479 30.0422781 116.713199 9.33507538 116.713199 7.54613065 118.949045 7.54613065"></polygon>
                        <path d="M141.893065,18.9509548 L159.648174,18.9509548 C159.961407,13.4048911 156.025729,9.20087102 150.614003,9.20087102 C145.515511,9.20087102 141.893065,13.0923283 141.893065,18.4142714 L141.893065,18.9509548 Z M162.510486,18.4588275 C162.510486,19.3532998 162.420704,20.5161139 162.242144,21.321474 L142.206298,21.321474 C143.234774,25.5700503 146.49943,28.3874707 150.748342,28.3874707 C154.147002,28.3874707 157.501441,26.6437521 158.708811,24.2286767 L161.07933,24.2286767 L161.07933,25.480268 C159.46928,28.6558124 155.131256,30.9365494 150.658559,30.9365494 C143.994908,30.9365494 139.120201,25.6594975 139.120201,18.4142714 C139.120201,11.5717253 143.994908,6.65179229 150.748342,6.65179229 C157.546332,6.65179229 162.510486,11.5717253 162.510486,18.4588275 L162.510486,18.4588275 Z" id="Fill-18" fill="#231F20"></path>
                        <path d="M185.990486,16.7145059 L185.990486,30.0421441 L183.217621,30.0421441 L183.217621,17.1620771 C183.217621,12.4659296 180.310754,9.20093802 175.972395,9.20093802 C171.723819,9.20093802 168.682613,12.2873702 168.682613,16.759732 L168.682613,30.0421441 L165.909749,30.0421441 L165.909749,7.54633166 L168.682613,7.54633166 L168.682613,10.9453266 C170.113434,8.26224456 172.841742,6.6518593 176.240402,6.6518593 C182.054807,6.6518593 185.990486,10.7667672 185.990486,16.7145059" id="Fill-20" fill="#231F20"></path>
                        <path d="M187.020369,7.54629816 L190.821709,7.54629816 L190.821709,2.62703518 L193.594238,2.62703518 L193.594238,7.54629816 L199.542647,7.54629816 L199.542647,9.87226131 L193.594238,9.87226131 L193.594238,24.5858291 C193.594238,26.8223451 194.936281,28.3429481 196.993568,28.3875042 C197.887705,28.3875042 199.050854,28.2089447 199.945327,27.940603 L199.945327,30.4002345 C199.005963,30.7134673 197.619698,30.9365829 196.367437,30.9365829 C193.057554,30.9365829 190.821709,28.4772864 190.821709,24.8096147 L190.821709,9.87226131 L187.020369,9.87226131 L187.020369,7.54629816 Z" id="Fill-22" fill="#231F20"></path>
                        <path d="M70.8238191,12.2460637 C70.8238191,12.7683417 70.3966834,13.1954774 69.8740704,13.1954774 L69.3742379,13.1954774 C68.8516248,13.1954774 68.4241541,12.7683417 68.4241541,12.2460637 L68.4241541,9.34723618 C68.4241541,8.82495812 68.8516248,8.39748744 69.3742379,8.39748744 L69.8740704,8.39748744 C70.3966834,8.39748744 70.8238191,8.82495812 70.8238191,9.34723618 L70.8238191,12.2460637 Z" id="Fill-24" fill="#AF1E40"></path>
                        <path d="M70.8238191,5.04860972 C70.8238191,5.57088777 70.3966834,5.99802345 69.8740704,5.99802345 L69.3742379,5.99802345 C68.8516248,5.99802345 68.4241541,5.57088777 68.4241541,5.04860972 L68.4241541,0.949782245 C68.4241541,0.427504188 68.8516248,3.35008375e-05 69.3742379,3.35008375e-05 L69.8740704,3.35008375e-05 C70.3966834,3.35008375e-05 70.8238191,0.427504188 70.8238191,0.949782245 L70.8238191,5.04860972 Z" id="Fill-26" fill="#AF1E40"></path>
                        <path d="M70.8238191,24.2422446 C70.8238191,24.7645226 70.3966834,25.1916583 69.8740704,25.1916583 L69.3742379,25.1916583 C68.8516248,25.1916583 68.4241541,24.7645226 68.4241541,24.2422446 L68.4241541,21.3427471 C68.4241541,20.820469 68.8516248,20.3929983 69.3742379,20.3929983 L69.8740704,20.3929983 C70.3966834,20.3929983 70.8238191,20.820469 70.8238191,21.3427471 L70.8238191,24.2422446 Z" id="Fill-28" fill="#AF1E40"></path>
                        <path d="M70.8238191,32.6390285 C70.8238191,33.1613065 70.3966834,33.5884422 69.8740704,33.5884422 L69.3742379,33.5884422 C68.8516248,33.5884422 68.4241541,33.1613065 68.4241541,32.6390285 L68.4241541,28.540201 C68.4241541,28.0179229 68.8516248,27.5904523 69.3742379,27.5904523 L69.8740704,27.5904523 C70.3966834,27.5904523 70.8238191,28.0179229 70.8238191,28.540201 L70.8238191,32.6390285 Z" id="Fill-30" fill="#AF1E40"></path>
                        <path d="M78.020938,17.0447906 C78.020938,17.5670687 77.5941374,17.9942044 77.0715243,17.9942044 L74.1723618,17.9942044 C73.6500838,17.9942044 73.2229481,17.5670687 73.2229481,17.0447906 L73.2229481,16.5446231 C73.2229481,16.0223451 73.6500838,15.5948744 74.1723618,15.5948744 L77.0715243,15.5948744 C77.5941374,15.5948744 78.020938,16.0223451 78.020938,16.5446231 L78.020938,17.0447906 Z" id="Fill-32" fill="#AF1E40"></path>
                        <path d="M75.4455611,22.9695812 C75.0757119,23.3390955 74.4720268,23.3390955 74.1021776,22.9695812 L73.0462312,21.9132998 C72.6763819,21.5437856 72.6763819,20.9394305 73.0462312,20.5702513 L73.399665,20.2164824 C73.7691792,19.8473032 74.3731993,19.8473032 74.7427136,20.2164824 L75.798995,21.2730988 C76.1685092,21.6422781 76.1685092,22.2466332 75.798995,22.6158124 L75.4455611,22.9695812 Z" id="Fill-34" fill="#AF1E40"></path>
                        <path d="M81.4430151,28.9670352 C81.0738358,29.3365494 80.4694807,29.3365494 80.1003015,28.9670352 L77.8443551,26.7114238 C77.4751759,26.3419095 77.4751759,25.7375544 77.8443551,25.3683752 L78.198124,25.0146064 C78.5673032,24.6454271 79.1719933,24.6454271 79.5408375,25.0146064 L81.7971189,27.2705528 C82.1659631,27.639732 82.1659631,28.2440871 81.7971189,28.6132663 L81.4430151,28.9670352 Z" id="Fill-36" fill="#AF1E40"></path>
                        <path d="M74.7428476,13.3727638 C74.3729983,13.7422781 73.7693132,13.7422781 73.399464,13.3727638 L73.0463652,13.018995 C72.6765159,12.6498157 72.6765159,12.0454606 73.0463652,11.6762814 L74.1023116,10.619665 C74.4718258,10.2504858 75.0758459,10.2504858 75.4456951,10.619665 L75.798794,10.9734338 C76.1686432,11.3426131 76.1686432,11.9469682 75.798794,12.3164824 L74.7428476,13.3727638 Z" id="Fill-38" fill="#AF1E40"></path>
                        <path d="M79.540938,8.57403685 C79.1717588,8.94355109 78.5674037,8.94355109 78.1982245,8.57403685 L77.8444556,8.22026801 C77.4752764,7.85108878 77.4752764,7.24673367 77.8444556,6.87755444 L80.100402,4.62160804 C80.4692462,4.25242881 81.0739363,4.25242881 81.4431156,4.62160804 L81.7968844,4.97537688 C82.1660637,5.34455611 82.1660637,5.94891122 81.7968844,6.31842546 L79.540938,8.57403685 Z" id="Fill-40" fill="#AF1E40"></path>
                        <path d="M66.0254271,17.0447906 C66.0254271,17.5670687 65.5982915,17.9942044 65.0760134,17.9942044 L62.1768509,17.9942044 C61.6542379,17.9942044 61.2274372,17.5670687 61.2274372,17.0447906 L61.2274372,16.5446231 C61.2274372,16.0223451 61.6542379,15.5948744 62.1768509,15.5948744 L65.0760134,15.5948744 C65.5982915,15.5948744 66.0254271,16.0223451 66.0254271,16.5446231 L66.0254271,17.0447906 Z" id="Fill-42" fill="#AF1E40"></path>
                        <path d="M58.8279732,17.0447906 C58.8279732,17.5670687 58.4008375,17.9942044 57.8785595,17.9942044 L53.779397,17.9942044 C53.2571189,17.9942044 52.8299832,17.5670687 52.8299832,17.0447906 L52.8299832,16.5446231 C52.8299832,16.0223451 53.2571189,15.5948744 53.779397,15.5948744 L57.8785595,15.5948744 C58.4008375,15.5948744 58.8279732,16.0223451 58.8279732,16.5446231 L58.8279732,17.0447906 Z" id="Fill-44" fill="#AF1E40"></path>
                        <path d="M86.4661642,17.0447906 C86.4661642,17.5670687 86.0390285,17.9942044 85.5167504,17.9942044 L81.4175879,17.9942044 C80.8953099,17.9942044 80.4681742,17.5670687 80.4681742,17.0447906 L80.4681742,16.5446231 C80.4681742,16.0223451 80.8953099,15.5948744 81.4175879,15.5948744 L85.5167504,15.5948744 C86.0390285,15.5948744 86.4661642,16.0223451 86.4661642,16.5446231 L86.4661642,17.0447906 Z" id="Fill-46" fill="#AF1E40"></path>
                        <path d="M65.1460302,22.9695812 C64.7768509,23.3390955 64.1724958,23.3390955 63.8033166,22.9695812 L63.4495477,22.6158124 C63.0803685,22.2466332 63.0803685,21.6422781 63.4495477,21.2730988 L64.5054941,20.2164824 C64.8750084,19.8473032 65.4790285,19.8473032 65.8488777,20.2164824 L66.2019765,20.5702513 C66.5718258,20.9394305 66.5718258,21.5437856 66.2019765,21.9132998 L65.1460302,22.9695812 Z" id="Fill-48" fill="#AF1E40"></path>
                        <path d="M59.1479397,28.9670352 C58.7787605,29.3365494 58.1744054,29.3365494 57.8052261,28.9670352 L57.4514573,28.6132663 C57.0822781,28.2440871 57.0822781,27.639732 57.4514573,27.2705528 L59.7074037,25.0146064 C60.0762479,24.6454271 60.680938,24.6454271 61.0501173,25.0146064 L61.4038861,25.3683752 C61.7730653,25.7375544 61.7730653,26.3419095 61.4038861,26.7114238 L59.1479397,28.9670352 Z" id="Fill-50" fill="#AF1E40"></path>
                        <path d="M65.8487772,13.3727638 C65.478928,13.7422781 64.8752429,13.7422781 64.5053936,13.3727638 L63.4494472,12.3164824 C63.080268,11.9469682 63.080268,11.3426131 63.4494472,10.9734338 L63.8035511,10.619665 C64.1723953,10.2504858 64.7770854,10.2504858 65.1459296,10.619665 L66.2022111,11.6762814 C66.5717253,12.0454606 66.5717253,12.6498157 66.2022111,13.018995 L65.8487772,13.3727638 Z" id="Fill-52" fill="#AF1E40"></path>
                        <path d="M61.0500168,8.57403685 C60.6808375,8.94355109 60.0764824,8.94355109 59.7073032,8.57403685 L57.4513568,6.31842546 C57.0821776,5.94891122 57.0821776,5.34455611 57.4513568,4.97537688 L57.8051256,4.62160804 C58.1743049,4.25242881 58.778995,4.25242881 59.1478392,4.62160804 L61.4041206,6.87755444 C61.7729648,7.24673367 61.7729648,7.85108878 61.4041206,8.22026801 L61.0500168,8.57403685 Z" id="Fill-54" fill="#AF1E40"></path>
                    </g>
                </g>
            </g>
        </g>
    </g>
</svg>