<?xml version="1.0" encoding="UTF-8"?>
<svg width="14px" height="20px" viewBox="0 0 14 20" version="1.1" xmlns="http://www.w3.org/2000/svg" xmlns:xlink="http://www.w3.org/1999/xlink">
    <!-- Generator: Sketch 59 (86127) - https://sketch.com -->
    <title>Icon/Ralali</title>
    <desc>Created with Sketch.</desc>
    <g id="Symbols" stroke="none" stroke-width="1" fill="none" fill-rule="evenodd">
        <g id="Button/Regular/LoginRalali" transform="translate(-57.000000, -10.000000)">
            <g id="Google-Login-Button---Active">
                <g id="Group-2" transform="translate(54.000000, 10.000000)">
                    <g id="Group">
                        <g id="Icon/Ralali">
                            <g id="Group-2">
                                <rect id="Rectangle" x="0" y="0" width="20" height="20"></rect>
                                <g id="logo-ralali-(2)" transform="translate(3.000000, 0.000000)" fill="#FFFFFF" fill-rule="nonzero">
                                    <path d="M6.87586125,10.9433448 C4.87828484,10.9345556 3.12138028,9.26445369 3.12138028,7.05649954 C3.12138028,4.8687401 4.82346514,3.14815144 6.98951184,3.14613022 C9.1502103,3.1441125 10.8429357,4.89768584 10.8462939,7.03293905 C10.8522952,9.21329379 9.11745221,10.9527308 6.87586125,10.9433448 Z M11.6224451,12.7507325 C11.4091831,12.5588829 11.4051719,12.4713725 11.6191024,12.2754839 C13.8459857,10.2311068 14.5339061,7.32172329 13.4802981,4.4749434 C12.3130396,1.32322347 8.77315775,-0.611429034 5.52408766,0.175491212 C2.71090106,0.856725845 0.940625843,2.64463019 0.183178025,5.45640595 C0.110976467,5.72364918 0.146408713,6.01445291 0,6.26419405 L0,18.8145286 C0.100948473,18.8603032 0.0922575454,18.9680083 0.128358324,19.0501334 C0.428529613,19.7286754 1.13984866,20.100258 1.86386983,19.9555293 C2.61998058,19.804069 3.10800962,19.1679358 3.11001522,18.3103341 C3.11402642,16.6375396 3.11068375,14.9647451 3.11268935,13.2912774 C3.11268935,13.182226 3.08260537,13.0671162 3.13742507,12.9607574 C3.16349786,12.9641232 3.18689651,12.9607574 3.20160423,12.9708548 C4.40496352,13.7510435 5.73333849,14.0721393 7.15330242,14.118587 C8.86073556,14.1751322 10.2974129,15.3699854 10.7292851,16.9694059 C10.8536322,17.429172 10.8877274,17.8943233 10.8904015,18.3641867 C10.8930757,18.850879 11.0441641,19.2709289 11.4105202,19.5906783 C11.9032289,20.0208255 12.4714819,20.1177601 13.0644706,19.8538826 C13.7263182,19.5597131 13.995737,18.9983004 13.9998755,18.2901395 C14.0111133,16.093629 13.2616879,14.2249458 11.6224451,12.7507325 L11.6224451,12.7507325 Z" id="Fill-11"></path>
                                </g>
                            </g>
                        </g>
                    </g>
                </g>
            </g>
        </g>
    </g>
</svg>